<?xml version="1.0" encoding="utf-8"?>
<svg version="1.1" xmlns:xlink="http://www.w3.org/1999/xlink" width="56px" height="14px" xmlns="http://www.w3.org/2000/svg">
  <defs>
    <pattern id="BGPattern" patternUnits="userSpaceOnUse" alignment="0 0" imageRepeat="None" />
    <mask fill="white" id="Clip37">
      <path d="M 10.3975 5.895999999999987  L 4.214399999999998 5.895999999999987  L 4.214399999999998 6.685000000000002  L 10.3975 6.685000000000002  L 10.3975 5.895999999999987  Z M 10.3975 4.264999999999986  L 4.214399999999998 4.264999999999986  L 4.214399999999998 5.040999999999997  L 10.3975 5.040999999999997  L 10.3975 4.264999999999986  Z M 2.891599999999997 7.600999999999998  L 2.891599999999997 3.3489999999999895  L 11.7817 3.3489999999999895  L 11.7817 7.600999999999998  L 2.891599999999997 7.600999999999998  Z M 2.314 2.094999999999999  C 2.8586000000000027 1.492999999999995  3.289200000000001 0.8540000000000134  3.6060000000000016 0.1769999999999925  L 4.805700000000002 0.5459999999999923  C 4.555 1.0699999999999932  4.249699999999997 1.5840000000000032  3.8896000000000015 2.087999999999994  C 3.5319000000000003 2.5889999999999986  3.1445000000000007 3.055000000000007  2.727499999999999 3.48599999999999  C 2.312800000000003 3.9170000000000016  1.887900000000002 4.296999999999997  1.4525999999999968 4.6270000000000095  C 1.4025000000000034 4.536000000000001  1.3250000000000028 4.4269999999999925  1.2201999999999984 4.299000000000007  C 1.1176999999999992 4.169000000000011  1.0116999999999976 4.039999999999992  0.9022999999999968 3.9099999999999966  C 0.7952000000000012 3.780000000000001  0.6995000000000005 3.6769999999999925  0.6152000000000015 3.602000000000004  C 1.2053999999999974 3.1990000000000123  1.7715999999999994 2.695999999999998  2.314 2.094999999999999  Z M 3.072800000000001 2.5600000000000023  L 3.6195999999999984 1.468999999999994  L 12.752400000000002 1.468999999999994  L 12.752400000000002 2.5600000000000023  L 3.072800000000001 2.5600000000000023  Z M 3.171900000000001 8.837999999999994  C 3.8008000000000024 8.338999999999999  4.3111999999999995 7.806999999999989  4.703099999999999 7.24199999999999  L 5.841299999999997 7.651999999999987  C 5.538200000000003 8.082999999999998  5.1828 8.501000000000005  4.774900000000002 8.90700000000001  C 4.369300000000003 9.310000000000002  3.940899999999999 9.683999999999997  3.489699999999999 10.027999999999992  C 3.0409000000000006 10.370000000000005  2.5977000000000032 10.669999999999987  2.1602000000000032 10.930000000000007  C 2.0940999999999974 10.85499999999999  2.005200000000002 10.764999999999986  1.8935999999999993 10.659999999999997  C 1.7841999999999985 10.552999999999997  1.6691000000000003 10.445999999999998  1.5482999999999976 10.338999999999999  C 1.4299000000000035 10.232  1.3228000000000009 10.145999999999987  1.2271 10.082999999999998  C 1.8947000000000003 9.75200000000001  2.5429999999999993 9.336999999999989  3.171900000000001 8.837999999999994  Z M 3.359900000000003 9.343999999999994  L 4.255400000000002 8.355999999999995  L 10.688000000000002 8.355999999999995  L 10.688000000000002 9.343999999999994  L 3.359900000000003 9.343999999999994  Z M 10.325699999999998 8.526999999999987  L 10.325699999999998 8.355999999999995  L 10.5957 8.355999999999995  L 10.804200000000002 8.298000000000002  L 11.631300000000003 8.828000000000003  C 11.134599999999999 9.530000000000001  10.502299999999998 10.13300000000001  9.7344 10.635999999999996  C 8.966500000000003 11.139999999999986  8.102899999999998 11.562000000000012  7.1436 11.903999999999996  C 6.184199999999997 12.24600000000001  5.172499999999999 12.516999999999996  4.108400000000003 12.71799999999999  C 3.046599999999998 12.920999999999992  1.9801000000000002 13.075999999999993  0.9091999999999986 13.182999999999993  C 0.8727000000000018 13.012  0.8055000000000021 12.811000000000007  0.7075000000000031 12.580999999999989  C 0.6118000000000023 12.350999999999999  0.5116000000000014 12.161000000000001  0.4067000000000007 12.009999999999991  C 1.4343999999999966 11.942000000000007  2.4517999999999986 11.824999999999989  3.459000000000003 11.657999999999987  C 4.466099999999997 11.490000000000009  5.4163 11.265999999999991  6.309600000000003 10.988  C 7.2051000000000025 10.710000000000008  7.999200000000003 10.36699999999999  8.691899999999997 9.959000000000003  C 9.384599999999999 9.551999999999992  9.929200000000002 9.074000000000012  10.325699999999998 8.526999999999987  Z M 3.359900000000003 9.341000000000008  L 4.316899999999997 8.974999999999994  C 4.7316 9.432999999999993  5.252299999999998 9.836000000000013  5.878900000000002 10.185000000000002  C 6.505499999999998 10.531000000000006  7.219900000000003 10.823000000000008  8.021999999999998 11.060000000000002  C 8.824100000000001 11.294999999999987  9.691099999999999 11.483000000000004  10.622999999999998 11.623999999999995  C 11.555 11.764999999999986  12.530299999999997 11.860000000000014  13.5488 11.907999999999987  C 13.4144 12.046999999999997  13.278799999999997 12.22999999999999  13.1421 12.457999999999998  C 13.0077 12.687999999999988  12.900599999999997 12.88900000000001  12.820799999999998 13.060000000000002  C 11.7954 12.978000000000009  10.815600000000003 12.848000000000013  9.881300000000003 12.669999999999987  C 8.947099999999999 12.49199999999999  8.0732 12.25399999999999  7.2597999999999985 11.955999999999989  C 6.446300000000001 11.65700000000001  5.711399999999998 11.292000000000002  5.055199999999999 10.861999999999995  C 4.398899999999998 10.429000000000002  3.8337999999999965 9.921999999999997  3.359900000000003 9.341000000000008  Z M 16.016599999999997 6.3160000000000025  L 16.016599999999997 5.033999999999992  L 20.408700000000003 5.033999999999992  L 20.408700000000003 6.3160000000000025  L 16.016599999999997 6.3160000000000025  Z M 25.542499999999997 9.437000000000012  L 25.542499999999997 1.1510000000000105  L 26.8789 1.1510000000000105  L 26.8789 9.471000000000004  C 26.8789 9.810000000000002  26.836799999999997 10.09299999999999  26.7524 10.318000000000012  C 26.6704 10.544000000000011  26.506300000000003 10.716000000000008  26.2603 10.834000000000003  C 26.021 10.950999999999993  25.719099999999997 11.02600000000001  25.3545 11.060000000000002  C 24.9899 11.092000000000013  24.557000000000002 11.108000000000004  24.0557 11.108000000000004  C 24.035200000000003 10.973000000000013  23.9976 10.820999999999998  23.9429 10.650000000000006  C 23.888199999999998 10.477000000000004  23.825499999999998 10.305000000000007  23.7549 10.133999999999986  C 23.684199999999997 9.962999999999994  23.6147 9.817000000000007  23.5464 9.695999999999998  C 23.9292 9.705000000000013  24.283499999999997 9.711999999999989  24.6094 9.717000000000013  C 24.9375 9.718999999999994  25.1562 9.719999999999999  25.2656 9.719999999999999  C 25.375 9.716000000000008  25.447899999999997 9.693999999999988  25.4844 9.655000000000001  C 25.5231 9.614000000000004  25.542499999999997 9.540999999999997  25.542499999999997 9.437000000000012  Z M 22 13.155000000000001  L 22 1.1510000000000105  L 26.273899999999998 1.1510000000000105  L 26.273899999999998 2.467000000000013  L 23 2.467000000000013  L 23 13.155000000000001  L 22 13.155000000000001  Z M 18.303199999999997 0.9739999999999895  C 18.754399999999997 0.806999999999988  19.145200000000003 0.6419999999999959  19.4756 0.47800000000000864  L 20.500999999999998 1.5480000000000018  C 20.052100000000003 1.7299999999999898  19.561 1.9039999999999964  19.0278 2.070999999999998  C 18.496899999999997 2.2350000000000136  17.9557 2.384999999999991  17.4043 2.5219999999999914  C 16.852899999999998 2.656000000000006  16.3174 2.776999999999987  15.797899999999998 2.883999999999986  C 15.7637 2.73599999999999  15.7044 2.5579999999999927  15.620099999999999 2.350999999999999  C 15.535800000000002 2.140999999999991  15.4561 1.9660000000000082  15.380899999999999 1.8249999999999884  C 15.870800000000003 1.7079999999999984  16.3675 1.5790000000000077  16.8711 1.4350000000000023  C 17.377000000000002 1.2920000000000016  17.854300000000002 1.1380000000000052  18.303199999999997 0.9739999999999895  Z M 15.380899999999999 9.221000000000004  L 15.380899999999999 1.8249999999999884  L 16.731 1.8249999999999884  L 16.731 10.444999999999993  L 15.278300000000002 11.580000000000013  C 15.250999999999998 11.466000000000008  15.206499999999997 11.322000000000003  15.145000000000003 11.149000000000001  C 15.0835 10.973000000000013  15.0163 10.798000000000002  14.943399999999999 10.62299999999999  C 14.870399999999997 10.444999999999993  14.796399999999998 10.300000000000011  14.721200000000001 10.187999999999988  C 14.8647 10.120000000000005  15.010599999999997 10.009999999999991  15.158700000000001 9.857  C 15.306800000000003 9.704000000000008  15.380899999999999 9.49199999999999  15.380899999999999 9.221000000000004  Z M 15.572299999999998 11.432999999999993  C 15.4561 11.483000000000004  15.3581 11.53200000000001  15.278300000000002 11.580000000000013  L 15.186 10.389999999999986  L 15.8594 9.905000000000001  L 20.3677 8.895999999999987  C 20.363100000000003 9.092000000000013  20.3688 9.310000000000002  20.3848 9.549000000000007  C 20.4007 9.788999999999987  20.420099999999998 9.983000000000004  20.4429 10.133999999999986  C 19.611199999999997 10.336999999999989  18.9105 10.509999999999991  18.3408 10.652999999999992  C 17.7712 10.796999999999997  17.304000000000002 10.918000000000006  16.939500000000002 11.015999999999991  C 16.5771 11.11099999999999  16.287799999999997 11.192000000000007  16.0713 11.25800000000001  C 15.857100000000003 11.324000000000012  15.690800000000003 11.382000000000005  15.572299999999998 11.432999999999993  Z M 29.927699999999998 1.8789999999999905  C 29.647499999999997 1.6769999999999925  29.382 1.4939999999999998  29.131300000000003 1.3329999999999984  L 29.9722 0.46399999999999864  C 30.218299999999996 0.6080000000000041  30.4837 0.7740000000000009  30.7686 0.962999999999994  C 31.053400000000003 1.1529999999999916  31.3245 1.3400000000000034  31.582 1.5269999999999868  C 31.8418 1.7139999999999986  32.053700000000006 1.8830000000000098  32.2178 2.032999999999987  L 31.329099999999997 3.01400000000001  C 31.180999999999997 2.8569999999999993  30.9805 2.679000000000002  30.727500000000003 2.4809999999999945  C 30.4746 2.280000000000001  30.208 2.0800000000000125  29.927699999999998 1.8789999999999905  Z M 29.237299999999998 5.643000000000001  C 28.9593 5.449000000000012  28.692700000000002 5.276999999999987  28.4375 5.126000000000005  L 29.240699999999997 4.228000000000009  C 29.491400000000002 4.364000000000004  29.758000000000003 4.520999999999987  30.0405 4.699000000000012  C 30.325400000000002 4.8770000000000095  30.5965 5.056999999999988  30.854 5.239000000000004  C 31.113799999999998 5.421999999999997  31.3234 5.586999999999989  31.482899999999997 5.735000000000014  L 30.6353 6.733000000000004  C 30.484900000000007 6.5800000000000125  30.284299999999998 6.407999999999987  30.033700000000003 6.217000000000013  C 29.783 6.025000000000006  29.5176 5.834000000000003  29.237299999999998 5.643000000000001  Z M 29.924300000000002 12.721000000000004  L 28.6392 12.207999999999998  C 28.819200000000002 11.86699999999999  29.0186 11.462999999999994  29.237299999999998 10.998999999999995  C 29.4561 10.531000000000006  29.677100000000003 10.038999999999987  29.9004 9.521999999999991  C 30.123700000000003 9.004999999999995  30.327599999999993 8.49199999999999  30.5122 7.984000000000009  L 31.653799999999997 8.507000000000005  C 31.478399999999997 8.985000000000014  31.292599999999997 9.473000000000013  31.0967 9.969999999999999  C 30.902999999999995 10.463999999999999  30.7059 10.947000000000003  30.5054 11.419000000000011  C 30.3071 11.888000000000005  30.113399999999995 12.322000000000003  29.924300000000002 12.721000000000004  Z M 33.9507 12.882000000000005  C 33.857299999999995 12.986999999999995  33.810500000000005 13.080999999999989  33.810500000000005 13.165999999999997  C 33.7855 13.062999999999988  33.7422 12.941000000000003  33.6807 12.800000000000011  C 33.6191 12.661000000000001  33.550799999999995 12.521999999999991  33.4756 12.38300000000001  C 33.400400000000005 12.24600000000001  33.3275 12.13300000000001  33.2568 12.044000000000011  C 33.402699999999996 11.97399999999999  33.557599999999994 11.859000000000009  33.7217 11.699000000000012  C 33.8857 11.537000000000006  33.9678 11.312000000000012  33.9678 11.021999999999991  L 33.9678 6.709000000000003  L 35.188 6.709000000000003  L 35.188 12.026999999999987  C 35.188 12.026999999999987  35.1413 12.054000000000002  35.0479 12.105999999999995  C 34.95440000000001 12.157999999999987  34.840500000000006 12.22399999999999  34.706100000000006 12.304000000000002  C 34.573899999999995 12.385999999999996  34.4383 12.477000000000004  34.2993 12.578000000000003  C 34.1626 12.677999999999997  34.046400000000006 12.778999999999996  33.9507 12.882000000000005  Z M 34.6138 5.2050000000000125  C 35.3703 3.8540000000000134  35.9058 2.233000000000004  36.220200000000006 0.3410000000000082  L 37.51220000000001 0.5289999999999964  C 37.257000000000005 1.9099999999999966  36.9084 3.1539999999999964  36.466300000000004 4.2620000000000005  C 36.0243 5.369  35.46939999999999 6.343999999999994  34.8018 7.187999999999988  C 34.136399999999995 8.027999999999992  33.333200000000005 8.744  32.3921 9.334000000000003  C 32.330600000000004 9.25399999999999  32.2394 9.153999999999996  32.118700000000004 9.032999999999987  C 31.9979 8.912000000000006  31.8703 8.793000000000006  31.7358 8.674000000000007  C 31.603700000000003 8.556000000000012  31.4886 8.461000000000013  31.3906 8.390999999999991  C 32.7829 7.617999999999995  33.857299999999995 6.556000000000012  34.6138 5.2050000000000125  Z M 32.3374 4.818999999999988  L 32.3374 2.3170000000000073  L 41.189899999999994 2.3170000000000073  L 41.189899999999994 4.818999999999988  L 39.945800000000006 4.818999999999988  L 39.945800000000006 3.4650000000000034  L 33.5269 3.4650000000000034  L 33.5269 4.818999999999988  L 32.3374 4.818999999999988  Z M 36.2852 3.283999999999992  L 37.4678 3.1129999999999995  C 37.64319999999999 4.409999999999997  37.9007 5.6200000000000045  38.2402 6.742999999999995  C 38.581999999999994 7.866999999999991  39.0355 8.853000000000009  39.6006 9.703000000000003  C 40.1657 10.550999999999988  40.8721 11.217000000000013  41.7197 11.703000000000003  C 41.621700000000004 11.784999999999997  41.5146 11.88900000000001  41.398399999999995 12.016999999999996  C 41.284499999999994 12.146999999999991  41.17400000000001 12.280000000000001  41.066900000000004 12.417000000000002  C 40.96210000000001 12.556000000000012  40.8755 12.683999999999997  40.807100000000005 12.800000000000011  C 39.9002 12.216000000000008  39.1506 11.460000000000008  38.558099999999996 10.530000000000001  C 37.9657 9.600999999999999  37.4906 8.526999999999987  37.1328 7.311000000000007  C 36.7773 6.091000000000008  36.4948 4.748999999999995  36.2852 3.283999999999992  Z M 39.522000000000006 6.431999999999988  C 39.8296 6.186000000000007  40.0928 5.959000000000003  40.311499999999995 5.7520000000000095  L 41.183099999999996 6.699000000000012  C 40.9006 6.9199999999999875  40.5964 7.143000000000001  40.2705 7.369  C 39.9447 7.592000000000014  39.620000000000005 7.804000000000002  39.296400000000006 8.00399999999999  C 38.9751 8.205000000000013  38.6777 8.38300000000001  38.404300000000006 8.538000000000011  L 37.700199999999995 7.706999999999994  C 37.9645 7.5519999999999925  38.2573 7.361999999999995  38.578599999999994 7.135999999999997  C 38.8999 6.911000000000001  39.2144 6.675999999999988  39.522000000000006 6.431999999999988  Z M 34.1147 12.971000000000004  C 33.9894 13.038999999999987  33.888000000000005 13.104000000000013  33.810500000000005 13.165999999999997  L 33.6636 12.002999999999986  L 34.1934 11.556000000000012  L 37.4473 10.49600000000001  C 37.45869999999999 10.675999999999988  37.481399999999994 10.87899999999999  37.515600000000006 11.104000000000013  C 37.549800000000005 11.330000000000013  37.5851 11.51400000000001  37.6216 11.655000000000001  C 36.8673 11.914999999999992  36.254400000000004 12.129999999999995  35.782700000000006 12.300999999999988  C 35.3133 12.47399999999999  34.9499 12.611999999999995  34.692400000000006 12.713999999999999  C 34.4349 12.818999999999988  34.2424 12.905000000000001  34.1147 12.971000000000004  Z M 45.3086 5.231999999999999  L 45.3086 4.169000000000011  L 55.166 4.169000000000011  L 55.166 5.231999999999999  L 45.3086 5.231999999999999  Z M 45.4658 9.310000000000002  L 45.4658 8.247000000000014  L 53.3374 8.247000000000014  L 53.3374 9.310000000000002  L 45.4658 9.310000000000002  Z M 47.403800000000004 7.50200000000001  L 47.403800000000004 3.0790000000000077  L 48.66160000000001 3.0790000000000077  L 48.66160000000001 6.477000000000004  L 51.703599999999994 6.477000000000004  L 51.703599999999994 3.0790000000000077  L 53.002399999999994 3.0790000000000077  L 53.002399999999994 7.50200000000001  L 47.403800000000004 7.50200000000001  Z M 52.9922 8.425000000000011  L 52.9922 8.247000000000014  L 53.255399999999995 8.247000000000014  L 53.48779999999999 8.195999999999998  L 54.3184 8.629999999999995  C 53.931 9.357  53.4263 9.978000000000009  52.804199999999994 10.492999999999995  C 52.182100000000005 11.004999999999995  51.4757 11.435000000000002  50.685100000000006 11.781000000000006  C 49.896699999999996 12.127999999999986  49.0501 12.403999999999996  48.1455 12.611999999999995  C 47.240899999999996 12.818999999999988  46.303200000000004 12.979000000000013  45.332499999999996 13.090000000000003  C 45.2869 12.932999999999993  45.2106 12.744  45.1035 12.522999999999996  C 44.9987 12.301999999999992  44.8939 12.120000000000005  44.789100000000005 11.975999999999999  C 45.68000000000001 11.902999999999992  46.5505 11.783999999999992  47.400400000000005 11.61699999999999  C 48.250299999999996 11.449000000000012  49.0399 11.223000000000013  49.769000000000005 10.939999999999998  C 50.4982 10.657999999999987  51.1396 10.310000000000002  51.6934 9.897999999999996  C 52.2471 9.483000000000004  52.68000000000001 8.99199999999999  52.9922 8.425000000000011  Z M 46.6245 9.519000000000005  L 47.766099999999994 9.074000000000012  C 48.2264 9.645999999999987  48.8416 10.134999999999991  49.6118 10.540999999999997  C 50.384299999999996 10.945999999999998  51.274100000000004 11.271999999999991  52.2812 11.518  C 53.288399999999996 11.762  54.369600000000005 11.931999999999988  55.5249 12.026999999999987  C 55.433800000000005 12.116000000000014  55.339200000000005 12.22999999999999  55.241200000000006 12.369  C 55.14319999999999 12.50800000000001  55.0509 12.647999999999996  54.9644 12.789999999999992  C 54.879999999999995 12.931000000000012  54.810500000000005 13.060000000000002  54.7559 13.175999999999988  C 53.564099999999996 13.040999999999997  52.45440000000001 12.824000000000012  51.4268 12.522999999999996  C 50.399100000000004 12.222000000000008  49.479699999999994 11.823000000000008  48.668499999999995 11.326999999999998  C 47.8595 10.830000000000013  47.178200000000004 10.227000000000004  46.6245 9.519000000000005  Z M 44.296899999999994 3  L 44.296899999999994 1.492999999999995  L 55.3164 1.492999999999995  L 55.3164 3  L 44.296899999999994 3  Z M 43.674800000000005 5.276999999999987  L 43.674800000000005 1.492999999999995  L 44.990700000000004 1.492999999999995  L 44.990700000000004 5.27000000000001  C 44.990700000000004 5.840000000000003  44.973600000000005 6.463999999999999  44.939499999999995 7.143000000000001  C 44.9075 7.822000000000003  44.844899999999996 8.518  44.75149999999999 9.230999999999995  C 44.658 9.942000000000007  44.522499999999994 10.634999999999991  44.3447 11.310000000000002  C 44.16930000000001 11.984000000000009  43.9346 12.603000000000009  43.640600000000006 13.165999999999997  C 43.554 13.094999999999999  43.435500000000005 13.021999999999991  43.2852 12.947000000000003  C 43.137 12.872000000000014  42.986599999999996 12.799000000000007  42.834 12.728000000000009  C 42.6836 12.659999999999997  42.55029999999999 12.61099999999999  42.4341 12.580999999999989  C 42.7235 12.048000000000002  42.950199999999995 11.46799999999999  43.1143 10.841000000000008  C 43.28060000000001 10.215000000000003  43.4036 9.574000000000012  43.4834 8.919999999999987  C 43.5654 8.26400000000001  43.6178 7.624999999999999  43.640600000000006 7.002999999999986  C 43.663399999999996 6.381  43.674800000000005 5.805000000000007  43.674800000000005 5.276999999999987  Z M 48.9795 1.3839999999999861  C 48.8519 1.0209999999999866  48.714 0.6949999999999932  48.5659 0.4029999999999916  L 49.8955 0.09499999999999886  C 50.0527 0.38700000000000045  50.2043 0.7059999999999889  50.3501 1.0519999999999925  C 50.495900000000006 1.399000000000001  50.597300000000004 1.6949999999999932  50.654300000000006 1.9410000000000025  L 49.2529 2.2959999999999923  C 49.200500000000005 2.048000000000002  49.109399999999994 1.7439999999999998  48.9795 1.3839999999999861  Z " fill-rule="evenodd" />
    </mask>
  </defs>
  <g transform="matrix(1 0 0 1 -32 -193 )">
    <path d="M 10.3975 5.895999999999987  L 4.214399999999998 5.895999999999987  L 4.214399999999998 6.685000000000002  L 10.3975 6.685000000000002  L 10.3975 5.895999999999987  Z M 10.3975 4.264999999999986  L 4.214399999999998 4.264999999999986  L 4.214399999999998 5.040999999999997  L 10.3975 5.040999999999997  L 10.3975 4.264999999999986  Z M 2.891599999999997 7.600999999999998  L 2.891599999999997 3.3489999999999895  L 11.7817 3.3489999999999895  L 11.7817 7.600999999999998  L 2.891599999999997 7.600999999999998  Z M 2.314 2.094999999999999  C 2.8586000000000027 1.492999999999995  3.289200000000001 0.8540000000000134  3.6060000000000016 0.1769999999999925  L 4.805700000000002 0.5459999999999923  C 4.555 1.0699999999999932  4.249699999999997 1.5840000000000032  3.8896000000000015 2.087999999999994  C 3.5319000000000003 2.5889999999999986  3.1445000000000007 3.055000000000007  2.727499999999999 3.48599999999999  C 2.312800000000003 3.9170000000000016  1.887900000000002 4.296999999999997  1.4525999999999968 4.6270000000000095  C 1.4025000000000034 4.536000000000001  1.3250000000000028 4.4269999999999925  1.2201999999999984 4.299000000000007  C 1.1176999999999992 4.169000000000011  1.0116999999999976 4.039999999999992  0.9022999999999968 3.9099999999999966  C 0.7952000000000012 3.780000000000001  0.6995000000000005 3.6769999999999925  0.6152000000000015 3.602000000000004  C 1.2053999999999974 3.1990000000000123  1.7715999999999994 2.695999999999998  2.314 2.094999999999999  Z M 3.072800000000001 2.5600000000000023  L 3.6195999999999984 1.468999999999994  L 12.752400000000002 1.468999999999994  L 12.752400000000002 2.5600000000000023  L 3.072800000000001 2.5600000000000023  Z M 3.171900000000001 8.837999999999994  C 3.8008000000000024 8.338999999999999  4.3111999999999995 7.806999999999989  4.703099999999999 7.24199999999999  L 5.841299999999997 7.651999999999987  C 5.538200000000003 8.082999999999998  5.1828 8.501000000000005  4.774900000000002 8.90700000000001  C 4.369300000000003 9.310000000000002  3.940899999999999 9.683999999999997  3.489699999999999 10.027999999999992  C 3.0409000000000006 10.370000000000005  2.5977000000000032 10.669999999999987  2.1602000000000032 10.930000000000007  C 2.0940999999999974 10.85499999999999  2.005200000000002 10.764999999999986  1.8935999999999993 10.659999999999997  C 1.7841999999999985 10.552999999999997  1.6691000000000003 10.445999999999998  1.5482999999999976 10.338999999999999  C 1.4299000000000035 10.232  1.3228000000000009 10.145999999999987  1.2271 10.082999999999998  C 1.8947000000000003 9.75200000000001  2.5429999999999993 9.336999999999989  3.171900000000001 8.837999999999994  Z M 3.359900000000003 9.343999999999994  L 4.255400000000002 8.355999999999995  L 10.688000000000002 8.355999999999995  L 10.688000000000002 9.343999999999994  L 3.359900000000003 9.343999999999994  Z M 10.325699999999998 8.526999999999987  L 10.325699999999998 8.355999999999995  L 10.5957 8.355999999999995  L 10.804200000000002 8.298000000000002  L 11.631300000000003 8.828000000000003  C 11.134599999999999 9.530000000000001  10.502299999999998 10.13300000000001  9.7344 10.635999999999996  C 8.966500000000003 11.139999999999986  8.102899999999998 11.562000000000012  7.1436 11.903999999999996  C 6.184199999999997 12.24600000000001  5.172499999999999 12.516999999999996  4.108400000000003 12.71799999999999  C 3.046599999999998 12.920999999999992  1.9801000000000002 13.075999999999993  0.9091999999999986 13.182999999999993  C 0.8727000000000018 13.012  0.8055000000000021 12.811000000000007  0.7075000000000031 12.580999999999989  C 0.6118000000000023 12.350999999999999  0.5116000000000014 12.161000000000001  0.4067000000000007 12.009999999999991  C 1.4343999999999966 11.942000000000007  2.4517999999999986 11.824999999999989  3.459000000000003 11.657999999999987  C 4.466099999999997 11.490000000000009  5.4163 11.265999999999991  6.309600000000003 10.988  C 7.2051000000000025 10.710000000000008  7.999200000000003 10.36699999999999  8.691899999999997 9.959000000000003  C 9.384599999999999 9.551999999999992  9.929200000000002 9.074000000000012  10.325699999999998 8.526999999999987  Z M 3.359900000000003 9.341000000000008  L 4.316899999999997 8.974999999999994  C 4.7316 9.432999999999993  5.252299999999998 9.836000000000013  5.878900000000002 10.185000000000002  C 6.505499999999998 10.531000000000006  7.219900000000003 10.823000000000008  8.021999999999998 11.060000000000002  C 8.824100000000001 11.294999999999987  9.691099999999999 11.483000000000004  10.622999999999998 11.623999999999995  C 11.555 11.764999999999986  12.530299999999997 11.860000000000014  13.5488 11.907999999999987  C 13.4144 12.046999999999997  13.278799999999997 12.22999999999999  13.1421 12.457999999999998  C 13.0077 12.687999999999988  12.900599999999997 12.88900000000001  12.820799999999998 13.060000000000002  C 11.7954 12.978000000000009  10.815600000000003 12.848000000000013  9.881300000000003 12.669999999999987  C 8.947099999999999 12.49199999999999  8.0732 12.25399999999999  7.2597999999999985 11.955999999999989  C 6.446300000000001 11.65700000000001  5.711399999999998 11.292000000000002  5.055199999999999 10.861999999999995  C 4.398899999999998 10.429000000000002  3.8337999999999965 9.921999999999997  3.359900000000003 9.341000000000008  Z M 16.016599999999997 6.3160000000000025  L 16.016599999999997 5.033999999999992  L 20.408700000000003 5.033999999999992  L 20.408700000000003 6.3160000000000025  L 16.016599999999997 6.3160000000000025  Z M 25.542499999999997 9.437000000000012  L 25.542499999999997 1.1510000000000105  L 26.8789 1.1510000000000105  L 26.8789 9.471000000000004  C 26.8789 9.810000000000002  26.836799999999997 10.09299999999999  26.7524 10.318000000000012  C 26.6704 10.544000000000011  26.506300000000003 10.716000000000008  26.2603 10.834000000000003  C 26.021 10.950999999999993  25.719099999999997 11.02600000000001  25.3545 11.060000000000002  C 24.9899 11.092000000000013  24.557000000000002 11.108000000000004  24.0557 11.108000000000004  C 24.035200000000003 10.973000000000013  23.9976 10.820999999999998  23.9429 10.650000000000006  C 23.888199999999998 10.477000000000004  23.825499999999998 10.305000000000007  23.7549 10.133999999999986  C 23.684199999999997 9.962999999999994  23.6147 9.817000000000007  23.5464 9.695999999999998  C 23.9292 9.705000000000013  24.283499999999997 9.711999999999989  24.6094 9.717000000000013  C 24.9375 9.718999999999994  25.1562 9.719999999999999  25.2656 9.719999999999999  C 25.375 9.716000000000008  25.447899999999997 9.693999999999988  25.4844 9.655000000000001  C 25.5231 9.614000000000004  25.542499999999997 9.540999999999997  25.542499999999997 9.437000000000012  Z M 22 13.155000000000001  L 22 1.1510000000000105  L 26.273899999999998 1.1510000000000105  L 26.273899999999998 2.467000000000013  L 23 2.467000000000013  L 23 13.155000000000001  L 22 13.155000000000001  Z M 18.303199999999997 0.9739999999999895  C 18.754399999999997 0.806999999999988  19.145200000000003 0.6419999999999959  19.4756 0.47800000000000864  L 20.500999999999998 1.5480000000000018  C 20.052100000000003 1.7299999999999898  19.561 1.9039999999999964  19.0278 2.070999999999998  C 18.496899999999997 2.2350000000000136  17.9557 2.384999999999991  17.4043 2.5219999999999914  C 16.852899999999998 2.656000000000006  16.3174 2.776999999999987  15.797899999999998 2.883999999999986  C 15.7637 2.73599999999999  15.7044 2.5579999999999927  15.620099999999999 2.350999999999999  C 15.535800000000002 2.140999999999991  15.4561 1.9660000000000082  15.380899999999999 1.8249999999999884  C 15.870800000000003 1.7079999999999984  16.3675 1.5790000000000077  16.8711 1.4350000000000023  C 17.377000000000002 1.2920000000000016  17.854300000000002 1.1380000000000052  18.303199999999997 0.9739999999999895  Z M 15.380899999999999 9.221000000000004  L 15.380899999999999 1.8249999999999884  L 16.731 1.8249999999999884  L 16.731 10.444999999999993  L 15.278300000000002 11.580000000000013  C 15.250999999999998 11.466000000000008  15.206499999999997 11.322000000000003  15.145000000000003 11.149000000000001  C 15.0835 10.973000000000013  15.0163 10.798000000000002  14.943399999999999 10.62299999999999  C 14.870399999999997 10.444999999999993  14.796399999999998 10.300000000000011  14.721200000000001 10.187999999999988  C 14.8647 10.120000000000005  15.010599999999997 10.009999999999991  15.158700000000001 9.857  C 15.306800000000003 9.704000000000008  15.380899999999999 9.49199999999999  15.380899999999999 9.221000000000004  Z M 15.572299999999998 11.432999999999993  C 15.4561 11.483000000000004  15.3581 11.53200000000001  15.278300000000002 11.580000000000013  L 15.186 10.389999999999986  L 15.8594 9.905000000000001  L 20.3677 8.895999999999987  C 20.363100000000003 9.092000000000013  20.3688 9.310000000000002  20.3848 9.549000000000007  C 20.4007 9.788999999999987  20.420099999999998 9.983000000000004  20.4429 10.133999999999986  C 19.611199999999997 10.336999999999989  18.9105 10.509999999999991  18.3408 10.652999999999992  C 17.7712 10.796999999999997  17.304000000000002 10.918000000000006  16.939500000000002 11.015999999999991  C 16.5771 11.11099999999999  16.287799999999997 11.192000000000007  16.0713 11.25800000000001  C 15.857100000000003 11.324000000000012  15.690800000000003 11.382000000000005  15.572299999999998 11.432999999999993  Z M 29.927699999999998 1.8789999999999905  C 29.647499999999997 1.6769999999999925  29.382 1.4939999999999998  29.131300000000003 1.3329999999999984  L 29.9722 0.46399999999999864  C 30.218299999999996 0.6080000000000041  30.4837 0.7740000000000009  30.7686 0.962999999999994  C 31.053400000000003 1.1529999999999916  31.3245 1.3400000000000034  31.582 1.5269999999999868  C 31.8418 1.7139999999999986  32.053700000000006 1.8830000000000098  32.2178 2.032999999999987  L 31.329099999999997 3.01400000000001  C 31.180999999999997 2.8569999999999993  30.9805 2.679000000000002  30.727500000000003 2.4809999999999945  C 30.4746 2.280000000000001  30.208 2.0800000000000125  29.927699999999998 1.8789999999999905  Z M 29.237299999999998 5.643000000000001  C 28.9593 5.449000000000012  28.692700000000002 5.276999999999987  28.4375 5.126000000000005  L 29.240699999999997 4.228000000000009  C 29.491400000000002 4.364000000000004  29.758000000000003 4.520999999999987  30.0405 4.699000000000012  C 30.325400000000002 4.8770000000000095  30.5965 5.056999999999988  30.854 5.239000000000004  C 31.113799999999998 5.421999999999997  31.3234 5.586999999999989  31.482899999999997 5.735000000000014  L 30.6353 6.733000000000004  C 30.484900000000007 6.5800000000000125  30.284299999999998 6.407999999999987  30.033700000000003 6.217000000000013  C 29.783 6.025000000000006  29.5176 5.834000000000003  29.237299999999998 5.643000000000001  Z M 29.924300000000002 12.721000000000004  L 28.6392 12.207999999999998  C 28.819200000000002 11.86699999999999  29.0186 11.462999999999994  29.237299999999998 10.998999999999995  C 29.4561 10.531000000000006  29.677100000000003 10.038999999999987  29.9004 9.521999999999991  C 30.123700000000003 9.004999999999995  30.327599999999993 8.49199999999999  30.5122 7.984000000000009  L 31.653799999999997 8.507000000000005  C 31.478399999999997 8.985000000000014  31.292599999999997 9.473000000000013  31.0967 9.969999999999999  C 30.902999999999995 10.463999999999999  30.7059 10.947000000000003  30.5054 11.419000000000011  C 30.3071 11.888000000000005  30.113399999999995 12.322000000000003  29.924300000000002 12.721000000000004  Z M 33.9507 12.882000000000005  C 33.857299999999995 12.986999999999995  33.810500000000005 13.080999999999989  33.810500000000005 13.165999999999997  C 33.7855 13.062999999999988  33.7422 12.941000000000003  33.6807 12.800000000000011  C 33.6191 12.661000000000001  33.550799999999995 12.521999999999991  33.4756 12.38300000000001  C 33.400400000000005 12.24600000000001  33.3275 12.13300000000001  33.2568 12.044000000000011  C 33.402699999999996 11.97399999999999  33.557599999999994 11.859000000000009  33.7217 11.699000000000012  C 33.8857 11.537000000000006  33.9678 11.312000000000012  33.9678 11.021999999999991  L 33.9678 6.709000000000003  L 35.188 6.709000000000003  L 35.188 12.026999999999987  C 35.188 12.026999999999987  35.1413 12.054000000000002  35.0479 12.105999999999995  C 34.95440000000001 12.157999999999987  34.840500000000006 12.22399999999999  34.706100000000006 12.304000000000002  C 34.573899999999995 12.385999999999996  34.4383 12.477000000000004  34.2993 12.578000000000003  C 34.1626 12.677999999999997  34.046400000000006 12.778999999999996  33.9507 12.882000000000005  Z M 34.6138 5.2050000000000125  C 35.3703 3.8540000000000134  35.9058 2.233000000000004  36.220200000000006 0.3410000000000082  L 37.51220000000001 0.5289999999999964  C 37.257000000000005 1.9099999999999966  36.9084 3.1539999999999964  36.466300000000004 4.2620000000000005  C 36.0243 5.369  35.46939999999999 6.343999999999994  34.8018 7.187999999999988  C 34.136399999999995 8.027999999999992  33.333200000000005 8.744  32.3921 9.334000000000003  C 32.330600000000004 9.25399999999999  32.2394 9.153999999999996  32.118700000000004 9.032999999999987  C 31.9979 8.912000000000006  31.8703 8.793000000000006  31.7358 8.674000000000007  C 31.603700000000003 8.556000000000012  31.4886 8.461000000000013  31.3906 8.390999999999991  C 32.7829 7.617999999999995  33.857299999999995 6.556000000000012  34.6138 5.2050000000000125  Z M 32.3374 4.818999999999988  L 32.3374 2.3170000000000073  L 41.189899999999994 2.3170000000000073  L 41.189899999999994 4.818999999999988  L 39.945800000000006 4.818999999999988  L 39.945800000000006 3.4650000000000034  L 33.5269 3.4650000000000034  L 33.5269 4.818999999999988  L 32.3374 4.818999999999988  Z M 36.2852 3.283999999999992  L 37.4678 3.1129999999999995  C 37.64319999999999 4.409999999999997  37.9007 5.6200000000000045  38.2402 6.742999999999995  C 38.581999999999994 7.866999999999991  39.0355 8.853000000000009  39.6006 9.703000000000003  C 40.1657 10.550999999999988  40.8721 11.217000000000013  41.7197 11.703000000000003  C 41.621700000000004 11.784999999999997  41.5146 11.88900000000001  41.398399999999995 12.016999999999996  C 41.284499999999994 12.146999999999991  41.17400000000001 12.280000000000001  41.066900000000004 12.417000000000002  C 40.96210000000001 12.556000000000012  40.8755 12.683999999999997  40.807100000000005 12.800000000000011  C 39.9002 12.216000000000008  39.1506 11.460000000000008  38.558099999999996 10.530000000000001  C 37.9657 9.600999999999999  37.4906 8.526999999999987  37.1328 7.311000000000007  C 36.7773 6.091000000000008  36.4948 4.748999999999995  36.2852 3.283999999999992  Z M 39.522000000000006 6.431999999999988  C 39.8296 6.186000000000007  40.0928 5.959000000000003  40.311499999999995 5.7520000000000095  L 41.183099999999996 6.699000000000012  C 40.9006 6.9199999999999875  40.5964 7.143000000000001  40.2705 7.369  C 39.9447 7.592000000000014  39.620000000000005 7.804000000000002  39.296400000000006 8.00399999999999  C 38.9751 8.205000000000013  38.6777 8.38300000000001  38.404300000000006 8.538000000000011  L 37.700199999999995 7.706999999999994  C 37.9645 7.5519999999999925  38.2573 7.361999999999995  38.578599999999994 7.135999999999997  C 38.8999 6.911000000000001  39.2144 6.675999999999988  39.522000000000006 6.431999999999988  Z M 34.1147 12.971000000000004  C 33.9894 13.038999999999987  33.888000000000005 13.104000000000013  33.810500000000005 13.165999999999997  L 33.6636 12.002999999999986  L 34.1934 11.556000000000012  L 37.4473 10.49600000000001  C 37.45869999999999 10.675999999999988  37.481399999999994 10.87899999999999  37.515600000000006 11.104000000000013  C 37.549800000000005 11.330000000000013  37.5851 11.51400000000001  37.6216 11.655000000000001  C 36.8673 11.914999999999992  36.254400000000004 12.129999999999995  35.782700000000006 12.300999999999988  C 35.3133 12.47399999999999  34.9499 12.611999999999995  34.692400000000006 12.713999999999999  C 34.4349 12.818999999999988  34.2424 12.905000000000001  34.1147 12.971000000000004  Z M 45.3086 5.231999999999999  L 45.3086 4.169000000000011  L 55.166 4.169000000000011  L 55.166 5.231999999999999  L 45.3086 5.231999999999999  Z M 45.4658 9.310000000000002  L 45.4658 8.247000000000014  L 53.3374 8.247000000000014  L 53.3374 9.310000000000002  L 45.4658 9.310000000000002  Z M 47.403800000000004 7.50200000000001  L 47.403800000000004 3.0790000000000077  L 48.66160000000001 3.0790000000000077  L 48.66160000000001 6.477000000000004  L 51.703599999999994 6.477000000000004  L 51.703599999999994 3.0790000000000077  L 53.002399999999994 3.0790000000000077  L 53.002399999999994 7.50200000000001  L 47.403800000000004 7.50200000000001  Z M 52.9922 8.425000000000011  L 52.9922 8.247000000000014  L 53.255399999999995 8.247000000000014  L 53.48779999999999 8.195999999999998  L 54.3184 8.629999999999995  C 53.931 9.357  53.4263 9.978000000000009  52.804199999999994 10.492999999999995  C 52.182100000000005 11.004999999999995  51.4757 11.435000000000002  50.685100000000006 11.781000000000006  C 49.896699999999996 12.127999999999986  49.0501 12.403999999999996  48.1455 12.611999999999995  C 47.240899999999996 12.818999999999988  46.303200000000004 12.979000000000013  45.332499999999996 13.090000000000003  C 45.2869 12.932999999999993  45.2106 12.744  45.1035 12.522999999999996  C 44.9987 12.301999999999992  44.8939 12.120000000000005  44.789100000000005 11.975999999999999  C 45.68000000000001 11.902999999999992  46.5505 11.783999999999992  47.400400000000005 11.61699999999999  C 48.250299999999996 11.449000000000012  49.0399 11.223000000000013  49.769000000000005 10.939999999999998  C 50.4982 10.657999999999987  51.1396 10.310000000000002  51.6934 9.897999999999996  C 52.2471 9.483000000000004  52.68000000000001 8.99199999999999  52.9922 8.425000000000011  Z M 46.6245 9.519000000000005  L 47.766099999999994 9.074000000000012  C 48.2264 9.645999999999987  48.8416 10.134999999999991  49.6118 10.540999999999997  C 50.384299999999996 10.945999999999998  51.274100000000004 11.271999999999991  52.2812 11.518  C 53.288399999999996 11.762  54.369600000000005 11.931999999999988  55.5249 12.026999999999987  C 55.433800000000005 12.116000000000014  55.339200000000005 12.22999999999999  55.241200000000006 12.369  C 55.14319999999999 12.50800000000001  55.0509 12.647999999999996  54.9644 12.789999999999992  C 54.879999999999995 12.931000000000012  54.810500000000005 13.060000000000002  54.7559 13.175999999999988  C 53.564099999999996 13.040999999999997  52.45440000000001 12.824000000000012  51.4268 12.522999999999996  C 50.399100000000004 12.222000000000008  49.479699999999994 11.823000000000008  48.668499999999995 11.326999999999998  C 47.8595 10.830000000000013  47.178200000000004 10.227000000000004  46.6245 9.519000000000005  Z M 44.296899999999994 3  L 44.296899999999994 1.492999999999995  L 55.3164 1.492999999999995  L 55.3164 3  L 44.296899999999994 3  Z M 43.674800000000005 5.276999999999987  L 43.674800000000005 1.492999999999995  L 44.990700000000004 1.492999999999995  L 44.990700000000004 5.27000000000001  C 44.990700000000004 5.840000000000003  44.973600000000005 6.463999999999999  44.939499999999995 7.143000000000001  C 44.9075 7.822000000000003  44.844899999999996 8.518  44.75149999999999 9.230999999999995  C 44.658 9.942000000000007  44.522499999999994 10.634999999999991  44.3447 11.310000000000002  C 44.16930000000001 11.984000000000009  43.9346 12.603000000000009  43.640600000000006 13.165999999999997  C 43.554 13.094999999999999  43.435500000000005 13.021999999999991  43.2852 12.947000000000003  C 43.137 12.872000000000014  42.986599999999996 12.799000000000007  42.834 12.728000000000009  C 42.6836 12.659999999999997  42.55029999999999 12.61099999999999  42.4341 12.580999999999989  C 42.7235 12.048000000000002  42.950199999999995 11.46799999999999  43.1143 10.841000000000008  C 43.28060000000001 10.215000000000003  43.4036 9.574000000000012  43.4834 8.919999999999987  C 43.5654 8.26400000000001  43.6178 7.624999999999999  43.640600000000006 7.002999999999986  C 43.663399999999996 6.381  43.674800000000005 5.805000000000007  43.674800000000005 5.276999999999987  Z M 48.9795 1.3839999999999861  C 48.8519 1.0209999999999866  48.714 0.6949999999999932  48.5659 0.4029999999999916  L 49.8955 0.09499999999999886  C 50.0527 0.38700000000000045  50.2043 0.7059999999999889  50.3501 1.0519999999999925  C 50.495900000000006 1.399000000000001  50.597300000000004 1.6949999999999932  50.654300000000006 1.9410000000000025  L 49.2529 2.2959999999999923  C 49.200500000000005 2.048000000000002  49.109399999999994 1.7439999999999998  48.9795 1.3839999999999861  Z " fill-rule="nonzero" fill="rgba(24, 24, 27, 1)" stroke="none" transform="matrix(1 0 0 1 32 193 )" class="fill" />
    <path d="M 10.3975 5.895999999999987  L 4.214399999999998 5.895999999999987  L 4.214399999999998 6.685000000000002  L 10.3975 6.685000000000002  L 10.3975 5.895999999999987  Z " stroke-width="0" stroke-dasharray="0" stroke="rgba(255, 255, 255, 0)" fill="none" transform="matrix(1 0 0 1 32 193 )" class="stroke" mask="url(#Clip37)" />
    <path d="M 10.3975 4.264999999999986  L 4.214399999999998 4.264999999999986  L 4.214399999999998 5.040999999999997  L 10.3975 5.040999999999997  L 10.3975 4.264999999999986  Z " stroke-width="0" stroke-dasharray="0" stroke="rgba(255, 255, 255, 0)" fill="none" transform="matrix(1 0 0 1 32 193 )" class="stroke" mask="url(#Clip37)" />
    <path d="M 2.891599999999997 7.600999999999998  L 2.891599999999997 3.3489999999999895  L 11.7817 3.3489999999999895  L 11.7817 7.600999999999998  L 2.891599999999997 7.600999999999998  Z " stroke-width="0" stroke-dasharray="0" stroke="rgba(255, 255, 255, 0)" fill="none" transform="matrix(1 0 0 1 32 193 )" class="stroke" mask="url(#Clip37)" />
    <path d="M 2.314 2.094999999999999  C 2.8586000000000027 1.492999999999995  3.289200000000001 0.8540000000000134  3.6060000000000016 0.1769999999999925  L 4.805700000000002 0.5459999999999923  C 4.555 1.0699999999999932  4.249699999999997 1.5840000000000032  3.8896000000000015 2.087999999999994  C 3.5319000000000003 2.5889999999999986  3.1445000000000007 3.055000000000007  2.727499999999999 3.48599999999999  C 2.312800000000003 3.9170000000000016  1.887900000000002 4.296999999999997  1.4525999999999968 4.6270000000000095  C 1.4025000000000034 4.536000000000001  1.3250000000000028 4.4269999999999925  1.2201999999999984 4.299000000000007  C 1.1176999999999992 4.169000000000011  1.0116999999999976 4.039999999999992  0.9022999999999968 3.9099999999999966  C 0.7952000000000012 3.780000000000001  0.6995000000000005 3.6769999999999925  0.6152000000000015 3.602000000000004  C 1.2053999999999974 3.1990000000000123  1.7715999999999994 2.695999999999998  2.314 2.094999999999999  Z " stroke-width="0" stroke-dasharray="0" stroke="rgba(255, 255, 255, 0)" fill="none" transform="matrix(1 0 0 1 32 193 )" class="stroke" mask="url(#Clip37)" />
    <path d="M 3.072800000000001 2.5600000000000023  L 3.6195999999999984 1.468999999999994  L 12.752400000000002 1.468999999999994  L 12.752400000000002 2.5600000000000023  L 3.072800000000001 2.5600000000000023  Z " stroke-width="0" stroke-dasharray="0" stroke="rgba(255, 255, 255, 0)" fill="none" transform="matrix(1 0 0 1 32 193 )" class="stroke" mask="url(#Clip37)" />
    <path d="M 3.171900000000001 8.837999999999994  C 3.8008000000000024 8.338999999999999  4.3111999999999995 7.806999999999989  4.703099999999999 7.24199999999999  L 5.841299999999997 7.651999999999987  C 5.538200000000003 8.082999999999998  5.1828 8.501000000000005  4.774900000000002 8.90700000000001  C 4.369300000000003 9.310000000000002  3.940899999999999 9.683999999999997  3.489699999999999 10.027999999999992  C 3.0409000000000006 10.370000000000005  2.5977000000000032 10.669999999999987  2.1602000000000032 10.930000000000007  C 2.0940999999999974 10.85499999999999  2.005200000000002 10.764999999999986  1.8935999999999993 10.659999999999997  C 1.7841999999999985 10.552999999999997  1.6691000000000003 10.445999999999998  1.5482999999999976 10.338999999999999  C 1.4299000000000035 10.232  1.3228000000000009 10.145999999999987  1.2271 10.082999999999998  C 1.8947000000000003 9.75200000000001  2.5429999999999993 9.336999999999989  3.171900000000001 8.837999999999994  Z " stroke-width="0" stroke-dasharray="0" stroke="rgba(255, 255, 255, 0)" fill="none" transform="matrix(1 0 0 1 32 193 )" class="stroke" mask="url(#Clip37)" />
    <path d="M 3.359900000000003 9.343999999999994  L 4.255400000000002 8.355999999999995  L 10.688000000000002 8.355999999999995  L 10.688000000000002 9.343999999999994  L 3.359900000000003 9.343999999999994  Z " stroke-width="0" stroke-dasharray="0" stroke="rgba(255, 255, 255, 0)" fill="none" transform="matrix(1 0 0 1 32 193 )" class="stroke" mask="url(#Clip37)" />
    <path d="M 10.325699999999998 8.526999999999987  L 10.325699999999998 8.355999999999995  L 10.5957 8.355999999999995  L 10.804200000000002 8.298000000000002  L 11.631300000000003 8.828000000000003  C 11.134599999999999 9.530000000000001  10.502299999999998 10.13300000000001  9.7344 10.635999999999996  C 8.966500000000003 11.139999999999986  8.102899999999998 11.562000000000012  7.1436 11.903999999999996  C 6.184199999999997 12.24600000000001  5.172499999999999 12.516999999999996  4.108400000000003 12.71799999999999  C 3.046599999999998 12.920999999999992  1.9801000000000002 13.075999999999993  0.9091999999999986 13.182999999999993  C 0.8727000000000018 13.012  0.8055000000000021 12.811000000000007  0.7075000000000031 12.580999999999989  C 0.6118000000000023 12.350999999999999  0.5116000000000014 12.161000000000001  0.4067000000000007 12.009999999999991  C 1.4343999999999966 11.942000000000007  2.4517999999999986 11.824999999999989  3.459000000000003 11.657999999999987  C 4.466099999999997 11.490000000000009  5.4163 11.265999999999991  6.309600000000003 10.988  C 7.2051000000000025 10.710000000000008  7.999200000000003 10.36699999999999  8.691899999999997 9.959000000000003  C 9.384599999999999 9.551999999999992  9.929200000000002 9.074000000000012  10.325699999999998 8.526999999999987  Z " stroke-width="0" stroke-dasharray="0" stroke="rgba(255, 255, 255, 0)" fill="none" transform="matrix(1 0 0 1 32 193 )" class="stroke" mask="url(#Clip37)" />
    <path d="M 3.359900000000003 9.341000000000008  L 4.316899999999997 8.974999999999994  C 4.7316 9.432999999999993  5.252299999999998 9.836000000000013  5.878900000000002 10.185000000000002  C 6.505499999999998 10.531000000000006  7.219900000000003 10.823000000000008  8.021999999999998 11.060000000000002  C 8.824100000000001 11.294999999999987  9.691099999999999 11.483000000000004  10.622999999999998 11.623999999999995  C 11.555 11.764999999999986  12.530299999999997 11.860000000000014  13.5488 11.907999999999987  C 13.4144 12.046999999999997  13.278799999999997 12.22999999999999  13.1421 12.457999999999998  C 13.0077 12.687999999999988  12.900599999999997 12.88900000000001  12.820799999999998 13.060000000000002  C 11.7954 12.978000000000009  10.815600000000003 12.848000000000013  9.881300000000003 12.669999999999987  C 8.947099999999999 12.49199999999999  8.0732 12.25399999999999  7.2597999999999985 11.955999999999989  C 6.446300000000001 11.65700000000001  5.711399999999998 11.292000000000002  5.055199999999999 10.861999999999995  C 4.398899999999998 10.429000000000002  3.8337999999999965 9.921999999999997  3.359900000000003 9.341000000000008  Z " stroke-width="0" stroke-dasharray="0" stroke="rgba(255, 255, 255, 0)" fill="none" transform="matrix(1 0 0 1 32 193 )" class="stroke" mask="url(#Clip37)" />
    <path d="M 16.016599999999997 6.3160000000000025  L 16.016599999999997 5.033999999999992  L 20.408700000000003 5.033999999999992  L 20.408700000000003 6.3160000000000025  L 16.016599999999997 6.3160000000000025  Z " stroke-width="0" stroke-dasharray="0" stroke="rgba(255, 255, 255, 0)" fill="none" transform="matrix(1 0 0 1 32 193 )" class="stroke" mask="url(#Clip37)" />
    <path d="M 25.542499999999997 9.437000000000012  L 25.542499999999997 1.1510000000000105  L 26.8789 1.1510000000000105  L 26.8789 9.471000000000004  C 26.8789 9.810000000000002  26.836799999999997 10.09299999999999  26.7524 10.318000000000012  C 26.6704 10.544000000000011  26.506300000000003 10.716000000000008  26.2603 10.834000000000003  C 26.021 10.950999999999993  25.719099999999997 11.02600000000001  25.3545 11.060000000000002  C 24.9899 11.092000000000013  24.557000000000002 11.108000000000004  24.0557 11.108000000000004  C 24.035200000000003 10.973000000000013  23.9976 10.820999999999998  23.9429 10.650000000000006  C 23.888199999999998 10.477000000000004  23.825499999999998 10.305000000000007  23.7549 10.133999999999986  C 23.684199999999997 9.962999999999994  23.6147 9.817000000000007  23.5464 9.695999999999998  C 23.9292 9.705000000000013  24.283499999999997 9.711999999999989  24.6094 9.717000000000013  C 24.9375 9.718999999999994  25.1562 9.719999999999999  25.2656 9.719999999999999  C 25.375 9.716000000000008  25.447899999999997 9.693999999999988  25.4844 9.655000000000001  C 25.5231 9.614000000000004  25.542499999999997 9.540999999999997  25.542499999999997 9.437000000000012  Z " stroke-width="0" stroke-dasharray="0" stroke="rgba(255, 255, 255, 0)" fill="none" transform="matrix(1 0 0 1 32 193 )" class="stroke" mask="url(#Clip37)" />
    <path d="M 22 13.155000000000001  L 22 1.1510000000000105  L 26.273899999999998 1.1510000000000105  L 26.273899999999998 2.467000000000013  L 23 2.467000000000013  L 23 13.155000000000001  L 22 13.155000000000001  Z " stroke-width="0" stroke-dasharray="0" stroke="rgba(255, 255, 255, 0)" fill="none" transform="matrix(1 0 0 1 32 193 )" class="stroke" mask="url(#Clip37)" />
    <path d="M 18.303199999999997 0.9739999999999895  C 18.754399999999997 0.806999999999988  19.145200000000003 0.6419999999999959  19.4756 0.47800000000000864  L 20.500999999999998 1.5480000000000018  C 20.052100000000003 1.7299999999999898  19.561 1.9039999999999964  19.0278 2.070999999999998  C 18.496899999999997 2.2350000000000136  17.9557 2.384999999999991  17.4043 2.5219999999999914  C 16.852899999999998 2.656000000000006  16.3174 2.776999999999987  15.797899999999998 2.883999999999986  C 15.7637 2.73599999999999  15.7044 2.5579999999999927  15.620099999999999 2.350999999999999  C 15.535800000000002 2.140999999999991  15.4561 1.9660000000000082  15.380899999999999 1.8249999999999884  C 15.870800000000003 1.7079999999999984  16.3675 1.5790000000000077  16.8711 1.4350000000000023  C 17.377000000000002 1.2920000000000016  17.854300000000002 1.1380000000000052  18.303199999999997 0.9739999999999895  Z " stroke-width="0" stroke-dasharray="0" stroke="rgba(255, 255, 255, 0)" fill="none" transform="matrix(1 0 0 1 32 193 )" class="stroke" mask="url(#Clip37)" />
    <path d="M 15.380899999999999 9.221000000000004  L 15.380899999999999 1.8249999999999884  L 16.731 1.8249999999999884  L 16.731 10.444999999999993  L 15.278300000000002 11.580000000000013  C 15.250999999999998 11.466000000000008  15.206499999999997 11.322000000000003  15.145000000000003 11.149000000000001  C 15.0835 10.973000000000013  15.0163 10.798000000000002  14.943399999999999 10.62299999999999  C 14.870399999999997 10.444999999999993  14.796399999999998 10.300000000000011  14.721200000000001 10.187999999999988  C 14.8647 10.120000000000005  15.010599999999997 10.009999999999991  15.158700000000001 9.857  C 15.306800000000003 9.704000000000008  15.380899999999999 9.49199999999999  15.380899999999999 9.221000000000004  Z " stroke-width="0" stroke-dasharray="0" stroke="rgba(255, 255, 255, 0)" fill="none" transform="matrix(1 0 0 1 32 193 )" class="stroke" mask="url(#Clip37)" />
    <path d="M 15.572299999999998 11.432999999999993  C 15.4561 11.483000000000004  15.3581 11.53200000000001  15.278300000000002 11.580000000000013  L 15.186 10.389999999999986  L 15.8594 9.905000000000001  L 20.3677 8.895999999999987  C 20.363100000000003 9.092000000000013  20.3688 9.310000000000002  20.3848 9.549000000000007  C 20.4007 9.788999999999987  20.420099999999998 9.983000000000004  20.4429 10.133999999999986  C 19.611199999999997 10.336999999999989  18.9105 10.509999999999991  18.3408 10.652999999999992  C 17.7712 10.796999999999997  17.304000000000002 10.918000000000006  16.939500000000002 11.015999999999991  C 16.5771 11.11099999999999  16.287799999999997 11.192000000000007  16.0713 11.25800000000001  C 15.857100000000003 11.324000000000012  15.690800000000003 11.382000000000005  15.572299999999998 11.432999999999993  Z " stroke-width="0" stroke-dasharray="0" stroke="rgba(255, 255, 255, 0)" fill="none" transform="matrix(1 0 0 1 32 193 )" class="stroke" mask="url(#Clip37)" />
    <path d="M 29.927699999999998 1.8789999999999905  C 29.647499999999997 1.6769999999999925  29.382 1.4939999999999998  29.131300000000003 1.3329999999999984  L 29.9722 0.46399999999999864  C 30.218299999999996 0.6080000000000041  30.4837 0.7740000000000009  30.7686 0.962999999999994  C 31.053400000000003 1.1529999999999916  31.3245 1.3400000000000034  31.582 1.5269999999999868  C 31.8418 1.7139999999999986  32.053700000000006 1.8830000000000098  32.2178 2.032999999999987  L 31.329099999999997 3.01400000000001  C 31.180999999999997 2.8569999999999993  30.9805 2.679000000000002  30.727500000000003 2.4809999999999945  C 30.4746 2.280000000000001  30.208 2.0800000000000125  29.927699999999998 1.8789999999999905  Z " stroke-width="0" stroke-dasharray="0" stroke="rgba(255, 255, 255, 0)" fill="none" transform="matrix(1 0 0 1 32 193 )" class="stroke" mask="url(#Clip37)" />
    <path d="M 29.237299999999998 5.643000000000001  C 28.9593 5.449000000000012  28.692700000000002 5.276999999999987  28.4375 5.126000000000005  L 29.240699999999997 4.228000000000009  C 29.491400000000002 4.364000000000004  29.758000000000003 4.520999999999987  30.0405 4.699000000000012  C 30.325400000000002 4.8770000000000095  30.5965 5.056999999999988  30.854 5.239000000000004  C 31.113799999999998 5.421999999999997  31.3234 5.586999999999989  31.482899999999997 5.735000000000014  L 30.6353 6.733000000000004  C 30.484900000000007 6.5800000000000125  30.284299999999998 6.407999999999987  30.033700000000003 6.217000000000013  C 29.783 6.025000000000006  29.5176 5.834000000000003  29.237299999999998 5.643000000000001  Z " stroke-width="0" stroke-dasharray="0" stroke="rgba(255, 255, 255, 0)" fill="none" transform="matrix(1 0 0 1 32 193 )" class="stroke" mask="url(#Clip37)" />
    <path d="M 29.924300000000002 12.721000000000004  L 28.6392 12.207999999999998  C 28.819200000000002 11.86699999999999  29.0186 11.462999999999994  29.237299999999998 10.998999999999995  C 29.4561 10.531000000000006  29.677100000000003 10.038999999999987  29.9004 9.521999999999991  C 30.123700000000003 9.004999999999995  30.327599999999993 8.49199999999999  30.5122 7.984000000000009  L 31.653799999999997 8.507000000000005  C 31.478399999999997 8.985000000000014  31.292599999999997 9.473000000000013  31.0967 9.969999999999999  C 30.902999999999995 10.463999999999999  30.7059 10.947000000000003  30.5054 11.419000000000011  C 30.3071 11.888000000000005  30.113399999999995 12.322000000000003  29.924300000000002 12.721000000000004  Z " stroke-width="0" stroke-dasharray="0" stroke="rgba(255, 255, 255, 0)" fill="none" transform="matrix(1 0 0 1 32 193 )" class="stroke" mask="url(#Clip37)" />
    <path d="M 33.9507 12.882000000000005  C 33.857299999999995 12.986999999999995  33.810500000000005 13.080999999999989  33.810500000000005 13.165999999999997  C 33.7855 13.062999999999988  33.7422 12.941000000000003  33.6807 12.800000000000011  C 33.6191 12.661000000000001  33.550799999999995 12.521999999999991  33.4756 12.38300000000001  C 33.400400000000005 12.24600000000001  33.3275 12.13300000000001  33.2568 12.044000000000011  C 33.402699999999996 11.97399999999999  33.557599999999994 11.859000000000009  33.7217 11.699000000000012  C 33.8857 11.537000000000006  33.9678 11.312000000000012  33.9678 11.021999999999991  L 33.9678 6.709000000000003  L 35.188 6.709000000000003  L 35.188 12.026999999999987  C 35.188 12.026999999999987  35.1413 12.054000000000002  35.0479 12.105999999999995  C 34.95440000000001 12.157999999999987  34.840500000000006 12.22399999999999  34.706100000000006 12.304000000000002  C 34.573899999999995 12.385999999999996  34.4383 12.477000000000004  34.2993 12.578000000000003  C 34.1626 12.677999999999997  34.046400000000006 12.778999999999996  33.9507 12.882000000000005  Z " stroke-width="0" stroke-dasharray="0" stroke="rgba(255, 255, 255, 0)" fill="none" transform="matrix(1 0 0 1 32 193 )" class="stroke" mask="url(#Clip37)" />
    <path d="M 34.6138 5.2050000000000125  C 35.3703 3.8540000000000134  35.9058 2.233000000000004  36.220200000000006 0.3410000000000082  L 37.51220000000001 0.5289999999999964  C 37.257000000000005 1.9099999999999966  36.9084 3.1539999999999964  36.466300000000004 4.2620000000000005  C 36.0243 5.369  35.46939999999999 6.343999999999994  34.8018 7.187999999999988  C 34.136399999999995 8.027999999999992  33.333200000000005 8.744  32.3921 9.334000000000003  C 32.330600000000004 9.25399999999999  32.2394 9.153999999999996  32.118700000000004 9.032999999999987  C 31.9979 8.912000000000006  31.8703 8.793000000000006  31.7358 8.674000000000007  C 31.603700000000003 8.556000000000012  31.4886 8.461000000000013  31.3906 8.390999999999991  C 32.7829 7.617999999999995  33.857299999999995 6.556000000000012  34.6138 5.2050000000000125  Z " stroke-width="0" stroke-dasharray="0" stroke="rgba(255, 255, 255, 0)" fill="none" transform="matrix(1 0 0 1 32 193 )" class="stroke" mask="url(#Clip37)" />
    <path d="M 32.3374 4.818999999999988  L 32.3374 2.3170000000000073  L 41.189899999999994 2.3170000000000073  L 41.189899999999994 4.818999999999988  L 39.945800000000006 4.818999999999988  L 39.945800000000006 3.4650000000000034  L 33.5269 3.4650000000000034  L 33.5269 4.818999999999988  L 32.3374 4.818999999999988  Z " stroke-width="0" stroke-dasharray="0" stroke="rgba(255, 255, 255, 0)" fill="none" transform="matrix(1 0 0 1 32 193 )" class="stroke" mask="url(#Clip37)" />
    <path d="M 36.2852 3.283999999999992  L 37.4678 3.1129999999999995  C 37.64319999999999 4.409999999999997  37.9007 5.6200000000000045  38.2402 6.742999999999995  C 38.581999999999994 7.866999999999991  39.0355 8.853000000000009  39.6006 9.703000000000003  C 40.1657 10.550999999999988  40.8721 11.217000000000013  41.7197 11.703000000000003  C 41.621700000000004 11.784999999999997  41.5146 11.88900000000001  41.398399999999995 12.016999999999996  C 41.284499999999994 12.146999999999991  41.17400000000001 12.280000000000001  41.066900000000004 12.417000000000002  C 40.96210000000001 12.556000000000012  40.8755 12.683999999999997  40.807100000000005 12.800000000000011  C 39.9002 12.216000000000008  39.1506 11.460000000000008  38.558099999999996 10.530000000000001  C 37.9657 9.600999999999999  37.4906 8.526999999999987  37.1328 7.311000000000007  C 36.7773 6.091000000000008  36.4948 4.748999999999995  36.2852 3.283999999999992  Z " stroke-width="0" stroke-dasharray="0" stroke="rgba(255, 255, 255, 0)" fill="none" transform="matrix(1 0 0 1 32 193 )" class="stroke" mask="url(#Clip37)" />
    <path d="M 39.522000000000006 6.431999999999988  C 39.8296 6.186000000000007  40.0928 5.959000000000003  40.311499999999995 5.7520000000000095  L 41.183099999999996 6.699000000000012  C 40.9006 6.9199999999999875  40.5964 7.143000000000001  40.2705 7.369  C 39.9447 7.592000000000014  39.620000000000005 7.804000000000002  39.296400000000006 8.00399999999999  C 38.9751 8.205000000000013  38.6777 8.38300000000001  38.404300000000006 8.538000000000011  L 37.700199999999995 7.706999999999994  C 37.9645 7.5519999999999925  38.2573 7.361999999999995  38.578599999999994 7.135999999999997  C 38.8999 6.911000000000001  39.2144 6.675999999999988  39.522000000000006 6.431999999999988  Z " stroke-width="0" stroke-dasharray="0" stroke="rgba(255, 255, 255, 0)" fill="none" transform="matrix(1 0 0 1 32 193 )" class="stroke" mask="url(#Clip37)" />
    <path d="M 34.1147 12.971000000000004  C 33.9894 13.038999999999987  33.888000000000005 13.104000000000013  33.810500000000005 13.165999999999997  L 33.6636 12.002999999999986  L 34.1934 11.556000000000012  L 37.4473 10.49600000000001  C 37.45869999999999 10.675999999999988  37.481399999999994 10.87899999999999  37.515600000000006 11.104000000000013  C 37.549800000000005 11.330000000000013  37.5851 11.51400000000001  37.6216 11.655000000000001  C 36.8673 11.914999999999992  36.254400000000004 12.129999999999995  35.782700000000006 12.300999999999988  C 35.3133 12.47399999999999  34.9499 12.611999999999995  34.692400000000006 12.713999999999999  C 34.4349 12.818999999999988  34.2424 12.905000000000001  34.1147 12.971000000000004  Z " stroke-width="0" stroke-dasharray="0" stroke="rgba(255, 255, 255, 0)" fill="none" transform="matrix(1 0 0 1 32 193 )" class="stroke" mask="url(#Clip37)" />
    <path d="M 45.3086 5.231999999999999  L 45.3086 4.169000000000011  L 55.166 4.169000000000011  L 55.166 5.231999999999999  L 45.3086 5.231999999999999  Z " stroke-width="0" stroke-dasharray="0" stroke="rgba(255, 255, 255, 0)" fill="none" transform="matrix(1 0 0 1 32 193 )" class="stroke" mask="url(#Clip37)" />
    <path d="M 45.4658 9.310000000000002  L 45.4658 8.247000000000014  L 53.3374 8.247000000000014  L 53.3374 9.310000000000002  L 45.4658 9.310000000000002  Z " stroke-width="0" stroke-dasharray="0" stroke="rgba(255, 255, 255, 0)" fill="none" transform="matrix(1 0 0 1 32 193 )" class="stroke" mask="url(#Clip37)" />
    <path d="M 47.403800000000004 7.50200000000001  L 47.403800000000004 3.0790000000000077  L 48.66160000000001 3.0790000000000077  L 48.66160000000001 6.477000000000004  L 51.703599999999994 6.477000000000004  L 51.703599999999994 3.0790000000000077  L 53.002399999999994 3.0790000000000077  L 53.002399999999994 7.50200000000001  L 47.403800000000004 7.50200000000001  Z " stroke-width="0" stroke-dasharray="0" stroke="rgba(255, 255, 255, 0)" fill="none" transform="matrix(1 0 0 1 32 193 )" class="stroke" mask="url(#Clip37)" />
    <path d="M 52.9922 8.425000000000011  L 52.9922 8.247000000000014  L 53.255399999999995 8.247000000000014  L 53.48779999999999 8.195999999999998  L 54.3184 8.629999999999995  C 53.931 9.357  53.4263 9.978000000000009  52.804199999999994 10.492999999999995  C 52.182100000000005 11.004999999999995  51.4757 11.435000000000002  50.685100000000006 11.781000000000006  C 49.896699999999996 12.127999999999986  49.0501 12.403999999999996  48.1455 12.611999999999995  C 47.240899999999996 12.818999999999988  46.303200000000004 12.979000000000013  45.332499999999996 13.090000000000003  C 45.2869 12.932999999999993  45.2106 12.744  45.1035 12.522999999999996  C 44.9987 12.301999999999992  44.8939 12.120000000000005  44.789100000000005 11.975999999999999  C 45.68000000000001 11.902999999999992  46.5505 11.783999999999992  47.400400000000005 11.61699999999999  C 48.250299999999996 11.449000000000012  49.0399 11.223000000000013  49.769000000000005 10.939999999999998  C 50.4982 10.657999999999987  51.1396 10.310000000000002  51.6934 9.897999999999996  C 52.2471 9.483000000000004  52.68000000000001 8.99199999999999  52.9922 8.425000000000011  Z " stroke-width="0" stroke-dasharray="0" stroke="rgba(255, 255, 255, 0)" fill="none" transform="matrix(1 0 0 1 32 193 )" class="stroke" mask="url(#Clip37)" />
    <path d="M 46.6245 9.519000000000005  L 47.766099999999994 9.074000000000012  C 48.2264 9.645999999999987  48.8416 10.134999999999991  49.6118 10.540999999999997  C 50.384299999999996 10.945999999999998  51.274100000000004 11.271999999999991  52.2812 11.518  C 53.288399999999996 11.762  54.369600000000005 11.931999999999988  55.5249 12.026999999999987  C 55.433800000000005 12.116000000000014  55.339200000000005 12.22999999999999  55.241200000000006 12.369  C 55.14319999999999 12.50800000000001  55.0509 12.647999999999996  54.9644 12.789999999999992  C 54.879999999999995 12.931000000000012  54.810500000000005 13.060000000000002  54.7559 13.175999999999988  C 53.564099999999996 13.040999999999997  52.45440000000001 12.824000000000012  51.4268 12.522999999999996  C 50.399100000000004 12.222000000000008  49.479699999999994 11.823000000000008  48.668499999999995 11.326999999999998  C 47.8595 10.830000000000013  47.178200000000004 10.227000000000004  46.6245 9.519000000000005  Z " stroke-width="0" stroke-dasharray="0" stroke="rgba(255, 255, 255, 0)" fill="none" transform="matrix(1 0 0 1 32 193 )" class="stroke" mask="url(#Clip37)" />
    <path d="M 44.296899999999994 3  L 44.296899999999994 1.492999999999995  L 55.3164 1.492999999999995  L 55.3164 3  L 44.296899999999994 3  Z " stroke-width="0" stroke-dasharray="0" stroke="rgba(255, 255, 255, 0)" fill="none" transform="matrix(1 0 0 1 32 193 )" class="stroke" mask="url(#Clip37)" />
    <path d="M 43.674800000000005 5.276999999999987  L 43.674800000000005 1.492999999999995  L 44.990700000000004 1.492999999999995  L 44.990700000000004 5.27000000000001  C 44.990700000000004 5.840000000000003  44.973600000000005 6.463999999999999  44.939499999999995 7.143000000000001  C 44.9075 7.822000000000003  44.844899999999996 8.518  44.75149999999999 9.230999999999995  C 44.658 9.942000000000007  44.522499999999994 10.634999999999991  44.3447 11.310000000000002  C 44.16930000000001 11.984000000000009  43.9346 12.603000000000009  43.640600000000006 13.165999999999997  C 43.554 13.094999999999999  43.435500000000005 13.021999999999991  43.2852 12.947000000000003  C 43.137 12.872000000000014  42.986599999999996 12.799000000000007  42.834 12.728000000000009  C 42.6836 12.659999999999997  42.55029999999999 12.61099999999999  42.4341 12.580999999999989  C 42.7235 12.048000000000002  42.950199999999995 11.46799999999999  43.1143 10.841000000000008  C 43.28060000000001 10.215000000000003  43.4036 9.574000000000012  43.4834 8.919999999999987  C 43.5654 8.26400000000001  43.6178 7.624999999999999  43.640600000000006 7.002999999999986  C 43.663399999999996 6.381  43.674800000000005 5.805000000000007  43.674800000000005 5.276999999999987  Z " stroke-width="0" stroke-dasharray="0" stroke="rgba(255, 255, 255, 0)" fill="none" transform="matrix(1 0 0 1 32 193 )" class="stroke" mask="url(#Clip37)" />
    <path d="M 48.9795 1.3839999999999861  C 48.8519 1.0209999999999866  48.714 0.6949999999999932  48.5659 0.4029999999999916  L 49.8955 0.09499999999999886  C 50.0527 0.38700000000000045  50.2043 0.7059999999999889  50.3501 1.0519999999999925  C 50.495900000000006 1.399000000000001  50.597300000000004 1.6949999999999932  50.654300000000006 1.9410000000000025  L 49.2529 2.2959999999999923  C 49.200500000000005 2.048000000000002  49.109399999999994 1.7439999999999998  48.9795 1.3839999999999861  Z " stroke-width="0" stroke-dasharray="0" stroke="rgba(255, 255, 255, 0)" fill="none" transform="matrix(1 0 0 1 32 193 )" class="stroke" mask="url(#Clip37)" />
  </g>
</svg>